<?xml version="1.0"?><svg width="640" height="480" xmlns="http://www.w3.org/2000/svg">
 <title>Blood Splatter - Voice</title>
 <g>
  <title>Layer 1</title>
  <path fill="#7f0000" id="path2027" d="m233.697021,345.266754c-4.307159,-1.246735 -7.662537,-5.677216 -7.662537,-10.117645c0,-2.545746 -0.714722,-3.982513 -2.619507,-5.265503c-1.440735,-0.97049 -2.619507,-2.512817 -2.619507,-3.427368c0,-2.305542 5.170166,-9.059448 6.935089,-9.059448c2.70285,0 1.463043,-1.881836 -1.66333,-2.524658c-1.710876,-0.351746 -4.118958,-1.676147 -5.351257,-2.943024c-1.976959,-2.032379 -2.422913,-2.116089 -3.789429,-0.711243c-1.366516,1.404846 -2.104523,1.375366 -6.270874,-0.250519c-2.597137,-1.013458 -5.119354,-2.50354 -5.604889,-3.311127c-2.095917,-3.48645 1.877869,-11.971405 6.279175,-13.407532c1.336853,-0.436188 1.672485,-1.722626 1.480103,-5.673767c-0.417786,-8.580658 -0.980255,-10.527496 -5.254669,-18.187408c-2.267792,-4.063904 -4.995178,-9.812592 -6.060883,-12.774811c-1.065735,-2.96228 -6.182739,-15.8078 -11.371185,-28.545593c-5.188416,-12.737793 -12.231079,-30.430679 -15.650299,-39.317505c-3.41922,-8.886795 -7.522034,-19.066254 -9.11734,-22.621017c-1.595306,-3.554718 -4.639496,-11.394592 -6.764832,-17.421951c-2.345093,-6.650345 -5.075775,-12.291977 -6.945709,-14.34993c-3.597595,-3.959259 -5.253326,-10.504532 -3.024414,-11.955811c2.212433,-1.440506 -19.550598,-61.188965 7.317841,1.488159c26.868439,62.677124 7.553741,11.339554 2.046875,13.136383c-1.942627,0.63385 -1.866425,1.085709 1.601715,9.498367c2.002716,4.858109 3.767181,9.633896 3.92099,10.612885c0.153809,0.979034 0.747345,2.433243 1.319031,3.231598c1.180359,1.648422 3.66925,7.34816 13.569336,31.074326c8.879974,21.281418 25.15918,57.092331 29.135864,64.09288c1.682739,2.96228 3.634613,7.08255 4.337494,9.156097c0.702881,2.073608 1.780609,3.770172 2.394958,3.770172c1.849182,0 2.889618,1.677734 1.56311,2.520538c-0.903198,0.573853 -0.523834,2.37558 1.398315,6.640625c1.595703,3.540863 2.936829,5.355652 3.394806,4.593842c0.483521,-0.804321 1.882141,0.463989 3.871094,3.510406c2.973541,4.554443 5.911377,6.058441 7.305267,3.739868c1.019165,-1.695251 5.471558,-1.257141 6.167328,0.606842c0.345734,0.926239 1.019348,1.435791 1.496918,1.132385c1.277313,-0.811615 4.570831,3.544128 3.733276,4.937378c-0.490875,0.816528 -1.076355,0.68692 -1.865265,-0.412903c-1.111694,-1.549927 -5.070709,-4.109375 -6.356445,-4.109375c-0.346069,0 0.981842,1.454254 2.950928,3.231598c1.969086,1.777405 4.157745,3.231598 4.863708,3.231598c0.705933,0 1.024933,0.692657 0.708923,1.539246c-1.515808,4.060944 -1.836121,9.199768 -0.708435,11.365875c1.648468,3.166595 0.519104,4.059387 -2.078186,1.642944c-2.061493,-1.917969 -2.10202,-1.890839 -2.10202,1.404968c0,3.10434 -2.998169,6.458252 -4.444275,4.971558c-0.290741,-0.298889 -0.77005,0.405762 -1.065155,1.565887c-0.472015,1.855682 -0.120544,2.039917 2.922974,1.532135c3.68985,-0.61557 4.690765,-0.051239 10.639709,5.999054c1.963348,1.996796 3.830597,3.362274 4.149475,3.034454c0.879211,-0.90387 -1.624268,-7.931244 -3.349976,-9.403625c-1.762451,-1.503723 -1.99707,-3.185852 -0.444366,-3.185852c0.590546,0 1.484222,1.090637 1.985931,2.423645c0.501709,1.333038 2.64801,3.990631 4.769562,5.905792c4.247345,3.834106 4.589264,7.078949 0.804413,7.634033c-1.290741,0.189301 -2.346832,-0.174225 -2.346832,-0.807922c0,-1.89859 -1.908539,-1.300507 -2.557526,0.801453c-0.991852,3.212799 -7.206482,9.500763 -10.016144,10.13443c-0.720367,0.162476 -1.750931,0.201385 -2.830994,0.13327c-1.080048,-0.068146 -2.209595,-0.243347 -3.12793,-0.509155z"/>
  <path fill="#7f0000" id="path1801" d="m254.143555,349.628052c-3.391846,-3.540344 -3.477509,-7.495789 -0.232544,-10.740753c3.861389,-3.861389 8.636139,-2.926025 11.382111,2.229706c1.696808,3.185913 1.433167,5.703003 -0.909241,8.680908c-2.784698,3.540161 -6.748901,3.474426 -10.240326,-0.169861z"/>
  <path fill="#7f0000" id="path2025" d="m219.456451,343.932739c-0.993195,-1.196716 -0.993195,-1.803284 0,-3c1.631592,-1.965942 3.629272,-1.908508 4.410278,0.12677c0.611908,1.594604 -0.919495,4.37323 -2.410278,4.37323c-0.415314,0 -1.315308,-0.674988 -2,-1.5z"/>
  <path fill="#7f0000" id="path2023" d="m258.956451,334.432739c0.339935,-0.549988 1.041473,-1 1.559021,-1c0.517548,0 0.940979,0.450012 0.940979,1c0,0.550018 -0.701538,1 -1.559021,1c-0.857452,0 -1.280884,-0.449982 -0.940979,-1z"/>
  <path fill="#7f0000" id="path2021" d="m244.956451,319.432739c-0.339905,-0.549988 -0.141479,-1 0.440979,-1c0.582458,0 1.059021,0.450012 1.059021,1c0,0.550018 -0.198425,1 -0.440979,1c-0.242523,0 -0.719086,-0.449982 -1.059021,-1z"/>
  <path fill="#7f0000" id="path2019" d="m207.456451,290.432739c0,-0.549988 0.450012,-1 1,-1c0.550018,0 1,0.450012 1,1c0,0.550018 -0.449982,1 -1,1c-0.549988,0 -1,-0.449982 -1,-1z"/>
  <path fill="#7f0000" id="path2017" d="m225.706451,286.770477c-1.71524,-0.692139 -1.568817,-2.828217 0.300201,-4.379364c1.27774,-1.060455 1.82901,-1.007721 3.136749,0.299988c2.787842,2.787872 0.396484,5.62619 -3.436951,4.079376z"/>
  <path fill="#7f0000" id="path2015" d="m210.456451,283.432739c0,-0.549988 0.423462,-1 0.940979,-1c0.517548,0 1.219116,0.450012 1.559021,1c0.339935,0.550018 -0.083527,1 -0.940979,1c-0.857452,0 -1.559021,-0.449982 -1.559021,-1z"/>
  <path fill="#7f0000" id="path2013" d="m316.468536,292.70105c-2.290161,-2.842072 -1.981415,-5.736603 0.906525,-8.499023c1.643097,-1.571655 2.051544,-1.592285 4.444672,-0.224304c1.940216,1.10907 2.631622,2.224945 2.621429,4.230713c-0.01709,3.357086 -0.696136,4.451752 -3.64859,5.881378c-2.005646,0.971222 -2.567902,0.790649 -4.324036,-1.388763z"/>
  <path fill="#7f0000" id="path2011" d="m207.427277,280.897583c-1.736542,-2.092407 -0.288361,-3.210968 1.648956,-1.273621c0.935181,0.935181 1.174042,1.818207 0.589508,2.179443c-0.540466,0.334045 -1.547791,-0.073608 -2.238464,-0.905823z"/>
  <path fill="#7f0000" id="path2009" d="m320.027893,284.664886c-0.864319,-0.97229 -1.571472,-2.201782 -1.571472,-2.732147c0,-1.026794 2.807312,-4.5 3.637207,-4.5c1.50647,0 4.362793,2.551178 4.362793,3.896729c0,1.726685 -2.646606,5.103271 -4,5.103271c-0.471436,0 -1.564209,-0.795532 -2.428528,-1.767853z"/>
  <path fill="#7f0000" id="path2007" d="m220.020752,273.725891c-0.542694,-1.425201 -0.427826,-1.54007 0.559784,-0.559814c0.683441,0.678345 0.990692,1.485229 0.6828,1.793121c-0.307892,0.307892 -0.867065,-0.247101 -1.242584,-1.233307z"/>
  <path fill="#7f0000" id="path2005" d="m235.674622,272.278259c0.519531,-1.558624 2.663452,-1.812622 3.03183,-0.359222c0.137512,0.54248 -0.589325,1.147949 -1.615173,1.34552c-1.2146,0.233917 -1.70871,-0.110107 -1.416656,-0.986298z"/>
  <path fill="#7f0000" id="path2003" d="m195.039398,269.566956c-0.430756,-0.696991 -0.513153,-1.537323 -0.183075,-1.867401c0.894958,-0.894958 1.870758,0.421295 1.38739,1.87146c-0.338715,1.016144 -0.57428,1.01535 -1.204315,-0.004059z"/>
  <path fill="#7f0000" id="path2001" d="m228.566559,269.06543c-0.858521,-1.034454 -0.797455,-1.647278 0.250824,-2.517242c1.862946,-1.546112 4.639069,-0.35434 4.639069,1.991547c0,2.237152 -3.185272,2.57962 -4.889893,0.525696z"/>
  <path fill="#7f0000" id="path1999" d="m217.538452,258.585938c-1.165771,-2.178223 0.331848,-4.153198 3.149384,-4.153198c2.347351,0 3.35553,2.587891 1.758057,4.512726c-1.676239,2.019775 -3.713989,1.870483 -4.90744,-0.359528z"/>
  <path fill="#7f0000" id="path1997" d="m181.801544,257.889618c-0.325684,-0.848724 -0.322449,-1.812836 0.007202,-2.142487c0.712219,-0.71225 3.647705,1.547546 3.647705,2.808044c0,1.509094 -3.032318,0.956909 -3.654907,-0.665558z"/>
  <path fill="#7f0000" id="path1995" d="m228.955566,257.789001c-1.821869,-1.821869 -1.333801,-5.868591 0.994812,-8.248627c1.158905,-1.18454 1.671082,-0.885925 3.43045,2c2.571228,4.21756 2.598541,5.542145 0.141357,6.857208c-2.511322,1.343994 -2.629822,1.328217 -4.56662,-0.608582z"/>
  <path fill="#7f0000" id="path1993" d="m248.456451,248.506073c0,-1.431091 0.642242,-2.073334 2.073334,-2.073334c2.562653,0 2.271912,3.309845 -0.334808,3.811859c-1.199982,0.231079 -1.738525,-0.307434 -1.738525,-1.738525z"/>
  <path transform="rotate(-44.52977752685547 345.2620849609375,330.8456726074219) " fill="#7f0000" id="path1991" d="m347.430206,354.896851c-0.259308,-1.327179 -0.260223,-2.827942 -0.002014,-3.335022c0.258209,-0.507141 -0.414124,-2.287048 -1.494049,-3.955383c-2.04715,-3.162537 -2.591309,-8.114746 -1.091675,-9.934906c0.494507,-0.600311 -0.47934,-2.246368 -2.250275,-3.803497c-2.908447,-2.557373 -4.519836,-6.9935 -5.117279,-14.087646c-0.31488,-3.738922 2.192749,-11.642975 4.444763,-14.010101c1.516754,-1.594208 2.837524,-1.787323 4.967987,-0.726501c6.041473,3.008209 8.300659,17.780151 3.865173,25.273132c-2.03244,3.433441 -2.141571,4.044464 -0.955444,5.348114c1.613403,1.773254 1.760773,8.238129 0.250946,11.008148c-0.917847,1.683868 -0.897614,2.269989 0.129364,3.744812c1.462708,2.100525 0.745422,6.891876 -1.031738,6.891876c-0.684326,0 -1.456451,-1.085846 -1.715759,-2.413025z"/>
  <path fill="#7f0000" id="path1989" d="m244.706451,193.714478c-2.107452,-0.755981 -1.489868,-4.281738 0.75,-4.281738c1.31308,0 2,0.666687 2,1.940979c0,2.204681 -0.927795,2.994415 -2.75,2.340759z"/>
  <path fill="#7f0000" id="path1987" d="m191.668945,191.245239c-1.87616,-1.87616 -1.439514,-2.983826 1.037506,-2.63205c1.237518,0.175751 2.25,0.957062 2.25,1.736237c0,1.90387 -1.791321,2.391998 -3.287506,0.895813z"/>
  <path fill="#7f0000" id="path1985" d="m330.048431,271.811798c-0.373596,-0.973572 -0.102905,-2.072052 0.624146,-2.532837c1.877014,-1.189606 3.283875,-0.451263 3.283875,1.723419c0,2.440765 -3.040375,3.070465 -3.90802,0.809418z"/>
  <path fill="#7f0000" id="path1983" d="m156.456451,189.432739c0,-0.549988 0.675018,-1 1.5,-1c0.825012,0 1.5,0.450012 1.5,1c0,0.550018 -0.674988,1 -1.5,1c-0.824982,0 -1.5,-0.449982 -1.5,-1z"/>
  <path fill="#7f0000" id="path1981" d="m207.865692,189.056854c-0.835541,-2.177429 -0.250732,-2.762238 1.611359,-1.611389c1.143616,0.706787 1.198975,1.167725 0.253815,2.112854c-0.945129,0.94516 -1.35202,0.835754 -1.865173,-0.501465z"/>
  <path fill="#7f0000" id="path1979" d="m325.456451,277.849426c0,-1.76593 2.152771,-1.458405 2.770844,0.395813c0.217712,0.653137 -0.31665,1.1875 -1.1875,1.1875c-0.87085,0 -1.583344,-0.712494 -1.583344,-1.583313z"/>
  <path fill="#7f0000" id="path1977" d="m229.456451,188.432739c0,-0.549988 0.198456,-1 0.440979,-1c0.242554,0 0.719116,0.450012 1.059021,1c0.339935,0.550018 0.141479,1 -0.440979,1c-0.582458,0 -1.059021,-0.449982 -1.059021,-1z"/>
  <path fill="#7f0000" id="path1975" d="m261.916809,288.225189c-3.920502,-2.272614 -5.917175,-5.298187 -6.763763,-10.249207c-0.711212,-4.159332 -2.322052,-7.02478 -3.948944,-7.02478c-1.5112,0 -2.74762,-0.842621 -2.74762,-1.872528c0,-1.733948 3.41629,-2.58725 9.511475,-2.375549c2.974365,0.103241 3.376465,-6.261322 0.50061,-7.923431c-1.101379,-0.636505 -2.002411,-1.999939 -2.002411,-3.029816c0,-1.029938 1.093231,-1.240692 2.429413,-0.468414c1.336365,0.772278 5.616455,1.676941 9.511475,2.010376c9.499573,0.81308 15.191223,3.765625 17.874146,9.271851c3.719604,7.634247 2.592529,13.693329 -3.629669,19.511932c-6.636292,6.205902 -12.659729,6.830322 -20.734711,2.149567z"/>
  <path fill="#7f0000" id="path1973" d="m327.456451,273.932739c0,-0.824982 0.675018,-1.5 1.5,-1.5c0.825012,0 1.5,0.675018 1.5,1.5c0,0.825012 -0.674988,1.5 -1.5,1.5c-0.824982,0 -1.5,-0.674988 -1.5,-1.5z"/>
  <path fill="#7f0000" id="path1971" d="m135.456482,183.932739c0,-0.916656 0.5625,-1.479156 1.25,-1.25c1.415649,0.471893 1.26001,2.079987 -0.25,2.583344c-0.550018,0.18335 -1,-0.416656 -1,-1.333344z"/>
  <path transform="rotate(-45.62348175048828 383.5043945312501,317.59518432617193) " fill="#7f0000" id="path1969" d="m378.093262,314.878113c-2.593842,3.329285 -2.579834,3.731567 0.220886,6.33429c5.255249,4.882751 12.514832,2.686432 12.514832,-3.786926c0,-2.972076 -4.216156,-6.10202 -8.220459,-6.10202c-0.95993,0 -2.991882,1.59967 -4.515259,3.554657z"/>
  <path fill="#7f0000" id="path1967" d="m320.11969,140.57901c2.692993,-2.63765 1.742798,-5.529541 -1.954773,-5.949265c-2.171814,-0.246552 -3.511963,0.342575 -4.375824,1.923508c-2.667145,4.88121 2.258911,8.013794 6.330597,4.025757z"/>
  <path fill="#7f0000" id="path1965" d="m135.813202,172.920013c-0.66275,-1.727081 1.270721,-4.487274 3.14328,-4.487274c0.690308,0 1.855713,0.723724 2.589783,1.608215c1.134033,1.366394 1.048523,1.817474 -0.568665,3c-2.479126,1.812775 -4.440002,1.766846 -5.164398,-0.120941z"/>
  <path fill="#7f0000" id="path1963" d="m143.185608,167.828583c-0.401031,-0.401031 -0.729126,-1.419159 -0.729126,-2.262512c0,-1.12558 0.295807,-1.237488 1.112488,-0.420807c0.611877,0.611877 0.940002,1.629974 0.729156,2.262482c-0.210846,0.632507 -0.711456,0.821899 -1.112518,0.420837z"/>
  <path transform="rotate(10.49560832977295 305.74313354492136,211.1495056152342) " fill="#7f0000" id="path1961" d="m303.01767,171.263657c0.21579,14.48262 -0.278412,21.714081 -2.14032,31.317703c-3.093903,15.958191 -3.069946,31.474548 0.076172,49.347565c5.399323,30.67337 11.957489,20.42392 11.957489,-18.68808c0,-16.370148 -0.542664,-21.645355 -3.355621,-32.619827c-1.845856,-7.201553 -3.465393,-18.298569 -3.59964,-24.664658c-0.134216,-6.365219 -0.301483,-14.261902 -0.371674,-17.548309c-0.07019,-3.286407 -0.739471,-5.975281 -1.487305,-5.975281c-0.963654,0 -1.277954,5.485123 -1.079102,18.830887z"/>
  <path fill="#7f0000" id="path1959" d="m313.456451,302.432739c-2.49115,-2.49115 -2.554047,-5.188599 -0.171265,-7.345001c4.518646,-4.089294 11.820679,0.350067 9.092651,5.527954c-2.292389,4.350983 -5.694519,5.043915 -8.921387,1.817047z"/>
  <path fill="#7f0000" id="path1957" d="m133.966553,145.449066c-0.345459,-0.55899 0.073425,-1.016327 0.930908,-1.016327c1.756531,0 2.015137,0.600067 0.628113,1.457306c-0.512024,0.316437 -1.213562,0.117981 -1.559021,-0.440979z"/>
  <path fill="#7f0000" id="path1955" d="m143.030212,115.575348c-0.86557,-1.673798 -1.553864,-3.628113 -1.529541,-4.342926c0.024292,-0.714813 0.956848,0.430298 2.072296,2.544708c1.115448,2.11438 1.803741,4.068695 1.52951,4.342926c-0.27417,0.2742 -1.206726,-0.870911 -2.072266,-2.544708z"/>
  <path fill="#7f0000" id="path1953" d="m138.631226,106.916962c-0.687317,-1.508484 -1.04425,-2.948059 -0.793213,-3.199097c0.678894,-0.678894 2.804932,3.655457 2.395508,4.883759c-0.19397,0.581879 -0.915009,-0.176208 -1.602295,-1.684662z"/>
  <path fill="#7f0000" id="path1951" d="m210.456451,102.49176c0,-0.582458 0.450012,-1.059021 1,-1.059021c0.550018,0 1,0.198456 1,0.440979c0,0.242554 -0.449982,0.719116 -1,1.059021c-0.549988,0.339935 -1,0.141479 -1,-0.440979z"/>
  <path fill="#7f0000" id="path1949" d="m132.137451,92.889923c-0.906769,-1.901428 -1.217468,-3.457184 -0.690491,-3.457184c1.333008,0 4.191162,5.769714 3.170624,6.400421c-0.457367,0.282684 -1.573425,-1.041779 -2.480133,-2.943237z"/>
  <path fill="#7f0000" id="path1947" d="m225.150299,89.793274c-0.79892,-0.79892 0.104187,-2.360535 1.365173,-2.360535c0.517548,0 0.940979,0.675018 0.940979,1.5c0,1.546417 -1.179962,1.986725 -2.306152,0.860535z"/>
  <path id="svg_1" fill="#7f0000" d="m227.320282,341.413055c1.745331,-1.671112 3.10498,-7.60965 3.10498,-13.561523c0,-3.412292 0.289612,-5.338104 1.061462,-7.0578c0.583832,-1.300842 1.061462,-3.368164 1.061462,-4.593994c0,-3.090332 -2.095032,-12.143158 -2.810181,-12.143158c-1.095245,0 -0.592865,-2.522369 0.674011,-3.384003c0.693268,-0.471466 1.669037,-2.246674 2.168396,-3.944794c0.801086,-2.724152 0.981812,-2.836365 1.535522,-0.953339c0.553741,1.883026 0.852783,1.843536 2.541077,-0.335785c1.052399,-1.358429 2.074432,-3.355713 2.271179,-4.438171c0.849304,-4.673187 -0.760956,-16.046295 -2.544434,-17.971252c-0.541687,-0.584656 -0.677704,-2.30899 -0.599762,-7.605042c0.169312,-11.501373 0.397217,-14.110901 2.129272,-24.378113c0.918945,-5.447205 2.024139,-13.152649 2.455963,-17.123169c0.431854,-3.970581 2.505341,-21.188507 4.607788,-38.262054c2.102417,-17.073547 4.956238,-40.788818 6.341736,-52.700577c1.385529,-11.911728 3.048065,-25.556107 3.694489,-30.320862c0.646454,-4.764694 1.880005,-15.273132 2.741211,-23.352112c0.950287,-8.914032 2.056793,-16.475983 2.814514,-19.234436c1.457794,-5.306931 2.128723,-14.080109 1.225555,-16.025375c-0.896515,-1.930847 -1.397766,-1.593681 -2.965302,1.994705c-2.628357,6.016693 -3.060913,15.199356 -0.829437,17.607803c0.78717,0.849609 0.756287,1.455261 -0.649048,12.731461c-0.811523,6.511734 -1.52652,12.913132 -1.588837,14.225357c-0.062317,1.312271 -0.302826,3.261475 -0.534485,4.331573c-0.478302,2.209518 -1.486847,9.849365 -5.498505,41.65155c-3.598297,28.525284 -10.194885,76.525696 -11.806305,85.909088c-0.681885,3.970612 -1.472809,9.493347 -1.757629,12.272705c-0.284821,2.779419 -0.721527,5.053467 -0.970459,5.053467c-0.749329,0 -1.170929,2.24881 -0.633392,3.37851c0.365967,0.769165 0.21225,3.184174 -0.56662,8.90097c-0.646606,4.746124 -1.190063,7.17865 -1.375641,6.157532c-0.195923,-1.078125 -0.762665,0.621918 -1.568634,4.705292c-1.204895,6.104706 -2.395355,8.120636 -2.960205,5.012848c-0.412964,-2.272278 -2.217133,-1.685059 -2.499084,0.813416c-0.140106,1.241516 -0.413055,1.9245 -0.606567,1.517822c-0.517578,-1.08786 -1.852173,4.750488 -1.512787,6.617981c0.198914,1.094482 0.436157,0.920746 0.755829,-0.553436c0.45047,-2.077515 2.054749,-5.508148 2.575745,-5.508148c0.140228,0 -0.397858,1.949249 -1.19577,4.331573c-0.797913,2.382416 -1.684784,4.331604 -1.970856,4.331604c-0.286041,0 -0.415314,0.928406 -0.287262,2.063171c0.614227,5.443237 0.744019,12.331238 0.287079,15.23465c-0.667999,4.244446 -0.210358,5.441132 0.842102,2.202179c0.835358,-2.570831 0.851776,-2.534454 0.851776,1.883179c0,4.161011 1.214905,8.656555 1.800873,6.663818c0.117828,-0.400635 0.312042,0.543854 0.431641,2.098877c0.191254,2.487335 0.048828,2.734283 -1.184448,2.05365c-1.495178,-0.825104 -1.900757,-0.068665 -4.311371,8.041046c-0.795563,2.676483 -1.552216,4.506744 -1.681427,4.067322c-0.356262,-1.211517 0.658173,-10.63089 1.357452,-12.604462c0.714172,-2.015564 0.809265,-4.270264 0.180084,-4.270264c-0.239319,0 -0.60144,1.461884 -0.804749,3.248627c-0.203308,1.786774 -1.072998,5.348969 -1.932709,7.916016c-1.721069,5.139191 -1.859619,9.488525 -0.325958,10.232544c0.523041,0.253723 0.950989,-0.233521 0.950989,-1.082916c0,-2.544861 0.773376,-1.743195 1.036346,1.074249c0.401917,4.306396 2.920166,12.73468 4.058685,13.584045c0.583801,0.435516 1.67041,0.20871 2.414642,-0.503845z"/>
  <path fill="#7f0000" id="path1945" d="m229.150299,88.793274c-0.933228,-0.933258 0.194519,-2.360535 1.865173,-2.360535c0.792542,0 1.440979,0.675018 1.440979,1.5c0,1.506226 -2.110992,2.055695 -3.306152,0.860535z"/>
  <path id="svg_2" fill="#7f0000" d="m184.5,218.5c0,-0.824982 0.675018,-1.5 1.5,-1.5c0.825012,0 1.5,0.675018 1.5,1.5c0,0.825012 -0.674988,1.5 -1.5,1.5c-0.824982,0 -1.5,-0.674988 -1.5,-1.5z"/>
  <path id="svg_3" fill="#7f0000" d="m184.5,218.5c0,-0.824982 0.675018,-1.5 1.5,-1.5c0.825012,0 1.5,0.675018 1.5,1.5c0,0.825012 -0.674988,1.5 -1.5,1.5c-0.824982,0 -1.5,-0.674988 -1.5,-1.5z"/>
  <path transform="rotate(-155.49261474609375 396.00000000000006,267) " id="svg_4" fill="#7f0000" d="m407.304504,305.948669c-1.55603,-0.437073 -2.76825,-1.990326 -2.76825,-3.547058c0,-0.892487 -0.258179,-1.396179 -0.94635,-1.845978c-0.520447,-0.34024 -0.94635,-0.880951 -0.94635,-1.201569c0,-0.808289 1.867859,-3.176086 2.505432,-3.176086c0.97644,0 0.528564,-0.659729 -0.600891,-0.885101c-0.618103,-0.123322 -1.488037,-0.587616 -1.933228,-1.031769c-0.714233,-0.712524 -0.875305,-0.741852 -1.369019,-0.249359c-0.493652,0.492523 -0.760254,0.482178 -2.265442,-0.08783c-0.938232,-0.355286 -1.849426,-0.877686 -2.024841,-1.160797c-0.757202,-1.22229 0.678406,-4.19696 2.268433,-4.700439c0.482971,-0.152924 0.604248,-0.603943 0.534729,-1.989136c-0.15094,-3.008209 -0.354126,-3.690735 -1.898315,-6.37619c-0.819275,-1.424713 -1.804626,-3.440094 -2.189636,-4.478607c-0.38501,-1.038513 -2.233582,-5.541931 -4.108032,-10.007568c-1.874329,-4.465637 -4.41864,-10.668427 -5.65387,-13.783997c-1.235229,-3.11557 -2.717468,-6.684296 -3.293762,-7.930511c-0.576355,-1.246246 -1.676147,-3.994751 -2.443909,-6.107849c-0.847229,-2.331482 -1.83374,-4.309326 -2.509277,-5.030823c-1.299683,-1.388031 -1.897827,-3.682678 -1.09259,-4.191498c0.799255,-0.505005 1.246155,-0.416809 2.643677,0.521729c2.343262,1.5737 2.728882,3.975464 0.739441,4.605377c-0.701782,0.222229 -0.674255,0.380646 0.578674,3.329956c0.723511,1.703186 1.360962,3.377472 1.416504,3.720703c0.055603,0.343231 0.269958,0.853058 0.476501,1.132935c0.426453,0.577911 1.325623,2.576141 4.902161,10.894104c3.208008,7.460876 9.089111,20.015533 10.525757,22.469788c0.60791,1.038544 1.31311,2.483032 1.567017,3.209961c0.253906,0.72699 0.643311,1.321777 0.865234,1.321777c0.66803,0 1.043884,0.588165 0.564697,0.883636c-0.326294,0.201202 -0.18927,0.832855 0.505127,2.328094c0.576477,1.241364 1.060974,1.877594 1.22644,1.610504c0.174683,-0.281982 0.679932,0.162689 1.398499,1.230682c1.074219,1.59671 2.13562,2.123993 2.63916,1.311127c0.368164,-0.594299 1.976685,-0.440704 2.228027,0.212769c0.124939,0.324707 0.368286,0.503357 0.540771,0.397003c0.461487,-0.284546 1.651306,1.242493 1.348755,1.730927c-0.177368,0.286285 -0.388855,0.240845 -0.673889,-0.144745c-0.401611,-0.543365 -1.831848,-1.440674 -2.296326,-1.440674c-0.125061,0 0.354675,0.509827 1.06604,1.132935c0.711365,0.623138 1.502014,1.132935 1.75708,1.132935c0.255005,0 0.3703,0.242859 0.256104,0.539642c-0.547607,1.423706 -0.66333,3.225281 -0.25592,3.98468c0.59552,1.110138 0.187561,1.423157 -0.750793,0.575989c-0.744751,-0.672424 -0.759399,-0.662903 -0.759399,0.492554c0,1.088318 -1.08313,2.26413 -1.60553,1.74292c-0.105042,-0.104767 -0.278198,0.142273 -0.384827,0.548981c-0.170532,0.650574 -0.043518,0.715149 1.055969,0.53714c1.333008,-0.21579 1.694641,-0.017944 3.84375,2.103149c0.70929,0.700043 1.383911,1.178772 1.499084,1.063843c0.317627,-0.316895 -0.586792,-2.780548 -1.210205,-3.296753c-0.636719,-0.527161 -0.721497,-1.116882 -0.160583,-1.116882c0.213379,0 0.536194,0.382355 0.717468,0.84967c0.181274,0.467346 0.956665,1.399048 1.723083,2.070465c1.534424,1.344177 1.657959,2.48175 0.290588,2.676361c-0.466248,0.066376 -0.847778,-0.061096 -0.847778,-0.283234c0,-0.665619 -0.689514,-0.455933 -0.92395,0.280975c-0.358337,1.126343 -2.603516,3.33078 -3.61853,3.552948c-0.520447,0.113892 -1.489197,0.054596 -2.15271,-0.131805z"/>
  <path id="svg_5" fill="#7f0000" d="m479.885773,269.754822c121.285065,-0.951202 78.491058,-1.994385 -88.040619,-2.145447c-97.809662,-0.089172 -158.169632,0.123199 -197.074234,0.693726c-120.122101,1.760498 101.735275,2.889984 285.114853,1.451721z"/>
  <path transform="rotate(48.131813049316406 398.0955505371094,232.47283935546878) " id="svg_6" fill="#7f0000" d="m383.9935,315.366486c1.941101,-0.930328 3.453308,-4.236053 3.453308,-7.549225c0,-1.899384 0.322021,-2.971405 1.18045,-3.928833c0.649384,-0.724121 1.180603,-1.874786 1.180603,-2.557159c0,-1.720367 -2.330109,-6.759674 -3.125397,-6.759674c-1.21814,0 -0.659424,-1.403992 0.749542,-1.883606c0.771057,-0.262512 1.856293,-1.250702 2.411713,-2.195984c0.8909,-1.516418 1.091949,-1.578796 1.707764,-0.53064c0.615814,1.048157 0.948425,1.026154 2.82605,-0.186951c1.170502,-0.756073 2.30719,-1.867981 2.526062,-2.47052c0.944458,-2.601349 -0.846375,-8.932251 -2.829895,-10.003784c-0.602509,-0.325439 -0.753754,-1.2854 -0.667053,-4.233459c0.188263,-6.402283 0.441772,-7.854919 2.368103,-13.570313c1.022034,-3.032074 2.25119,-7.321457 2.731476,-9.531693c0.480286,-2.210159 2.786377,-11.794769 5.124725,-21.298843c2.338257,-9.504135 5.512115,-22.705444 7.05304,-29.336151c1.541016,-6.630707 3.390045,-14.226013 4.108978,-16.878372c0.718964,-2.652252 2.090881,-8.501831 3.048706,-12.999039c1.056854,-4.962219 2.287567,-9.171509 3.130219,-10.707077c1.621307,-2.954086 2.367554,-7.837814 1.363098,-8.920609c-0.997131,-1.074829 -1.554626,-0.887207 -3.297974,1.110321c-2.923218,3.349274 -3.404266,8.460861 -0.922546,9.801468c0.875549,0.473083 0.841248,0.810196 -0.721832,7.087143c-0.902557,3.624847 -1.697723,7.188187 -1.767029,7.918747c-0.069305,0.730377 -0.336761,1.815308 -0.594452,2.411026c-0.531952,1.230042 -1.653595,5.482864 -6.115356,23.185745c-4.001923,15.878784 -11.33844,42.598587 -13.130646,47.821945c-0.758392,2.210236 -1.638,5.284531 -1.954803,6.831711c-0.316803,1.547134 -0.802429,2.813065 -1.079346,2.813065c-0.833405,0 -1.302307,1.251831 -0.704407,1.880615c0.407043,0.428223 0.236023,1.7724 -0.630188,4.954865c-0.719147,2.641968 -1.323578,3.996002 -1.529938,3.42749c-0.217896,-0.600098 -0.848267,0.346344 -1.744629,2.619354c-1.340057,3.398132 -2.664032,4.520325 -3.292267,2.790527c-0.45929,-1.264954 -2.46582,-0.938141 -2.779419,0.452698c-0.155884,0.691101 -0.459442,1.071228 -0.674622,0.84491c-0.575653,-0.605591 -2.059937,2.644348 -1.682526,3.683868c0.221283,0.609375 0.485077,0.512604 0.840637,-0.308044c0.500977,-1.156403 2.285248,-3.06601 2.864716,-3.06601c0.155914,0 -0.442535,1.0849 -1.329895,2.411072c-0.887482,1.326172 -1.87381,2.411194 -2.191986,2.411194c-0.318176,0 -0.461914,0.516815 -0.319519,1.148468c0.683167,3.03006 0.827484,6.864258 0.319336,8.480499c-0.74292,2.36264 -0.233948,3.028839 0.936554,1.225861c0.929108,-1.431061 0.947296,-1.410736 0.947296,1.048248c0,2.316162 1.351257,4.818787 2.002899,3.709503c0.131042,-0.222992 0.347015,0.302765 0.480103,1.168365c0.212738,1.384552 0.054291,1.521942 -1.317352,1.143127c-1.662872,-0.45929 -2.113983,-0.038147 -4.795044,4.476105c-0.884766,1.48999 -1.726288,2.508759 -1.869995,2.26416c-0.39621,-0.674408 0.732056,-5.917755 1.509674,-7.016327c0.794373,-1.122009 0.900146,-2.377106 0.200348,-2.377106c-0.266174,0 -0.668915,0.813751 -0.89502,1.80838c-0.226135,0.994507 -1.19339,2.977478 -2.149567,4.406464c-1.914124,2.860809 -2.068237,5.281921 -0.362488,5.695984c0.581757,0.141235 1.057678,-0.129974 1.057678,-0.602783c0,-1.416595 0.860138,-0.970367 1.152557,0.597992c0.447083,2.397217 3.247742,7.088867 4.514008,7.561646c0.649292,0.242401 1.857788,0.116241 2.685547,-0.280365z"/>
  <path transform="rotate(114.1323471069336 423.5,325.0000305175781) " id="svg_7" fill="#7f0000" d="m430.928589,361.279785c-1.022522,-0.407104 -1.819092,-1.853943 -1.819092,-3.303986c0,-0.831329 -0.169678,-1.300537 -0.621887,-1.719513c-0.342041,-0.316895 -0.621887,-0.820557 -0.621887,-1.119232c0,-0.752899 1.227417,-2.958435 1.646423,-2.958435c0.641663,0 0.34729,-0.614532 -0.394897,-0.824432c-0.406128,-0.114868 -0.977844,-0.547363 -1.270386,-0.96109c-0.469299,-0.663696 -0.575195,-0.69101 -0.899597,-0.232269c-0.324402,0.458771 -0.499634,0.449158 -1.488708,-0.081787c-0.616577,-0.330963 -1.215332,-0.817566 -1.330627,-1.081299c-0.497559,-1.138519 0.445801,-3.909363 1.490662,-4.378326c0.317383,-0.142456 0.397095,-0.562531 0.351379,-1.852814c-0.099182,-2.802094 -0.232666,-3.437866 -1.247437,-5.93927c-0.538391,-1.327087 -1.185852,-3.204376 -1.438843,-4.171722c-0.253052,-0.967346 -1.467834,-5.16217 -2.699524,-9.321777c-1.23175,-4.159637 -2.903687,-9.937408 -3.715454,-12.839478c-0.811707,-2.902069 -1.785706,-6.226257 -2.164429,-7.387085c-0.378723,-1.160828 -1.10144,-3.721008 -1.605957,-5.689301c-0.556763,-2.171722 -1.205017,-4.014038 -1.648926,-4.686096c-0.854126,-1.292938 -1.247192,-3.430328 -0.718018,-3.904266c0.525208,-0.470428 0.818909,-0.388275 1.737244,0.485962c1.539856,1.465851 1.793274,3.703033 0.485962,4.289795c-0.461182,0.207001 -0.443115,0.354553 0.380249,3.101776c0.475403,1.586456 0.894287,3.146027 0.930847,3.465729c0.036499,0.319702 0.177429,0.794617 0.31311,1.055298c0.280212,0.53833 0.871094,2.399628 3.221375,10.147614c2.108154,6.949615 5.972839,18.643982 6.91687,20.930054c0.399536,0.967377 0.862915,2.312866 1.029724,2.990021c0.16687,0.677155 0.422729,1.231171 0.568604,1.231171c0.438965,0 0.685974,0.547882 0.371094,0.82312c-0.214417,0.187378 -0.12439,0.775757 0.33197,2.168549c0.378784,1.156281 0.697205,1.748932 0.805908,1.500153c0.114807,-0.262665 0.446838,0.15152 0.919006,1.146362c0.705933,1.487274 1.403381,1.978424 1.734253,1.221283c0.241943,-0.553619 1.29895,-0.410553 1.464111,0.198151c0.082092,0.30249 0.242004,0.468872 0.355408,0.369812c0.303223,-0.265045 1.085083,1.157349 0.886292,1.612335c-0.116516,0.266632 -0.255554,0.224304 -0.44281,-0.134827c-0.263916,-0.506165 -1.203796,-1.34198 -1.509033,-1.34198c-0.082153,0 0.233093,0.474915 0.700562,1.055328c0.467468,0.580414 0.987061,1.055298 1.154602,1.055298c0.167603,0 0.243347,0.226196 0.168335,0.502655c-0.359863,1.326141 -0.435913,3.004272 -0.168213,3.711609c0.391357,1.034088 0.123291,1.325653 -0.493347,0.53653c-0.48938,-0.626312 -0.499023,-0.617462 -0.499023,0.458801c0,1.013763 -0.711792,2.109009 -1.055054,1.623505c-0.069031,-0.097595 -0.182861,0.132507 -0.252869,0.511353c-0.112061,0.605988 -0.028625,0.666168 0.693909,0.500336c0.875977,-0.201019 1.113586,-0.016724 2.525879,1.959045c0.466064,0.652069 0.909363,1.097992 0.985107,0.990936c0.208679,-0.295166 -0.38562,-2.590027 -0.795288,-3.070831c-0.418396,-0.491058 -0.474121,-1.040375 -0.10553,-1.040375c0.140198,0 0.352356,0.35614 0.471436,0.791443c0.119141,0.435333 0.628662,1.303192 1.132324,1.928589c1.008362,1.252075 1.089539,2.311707 0.190979,2.492981c-0.306396,0.061798 -0.557129,-0.056915 -0.557129,-0.263855c0,-0.619995 -0.453125,-0.424683 -0.607178,0.261719c-0.235474,1.049194 -1.710815,3.10257 -2.377808,3.309509c-0.342041,0.10611 -0.978638,0.050842 -1.414673,-0.122772z"/>
 </g>
</svg>